<?xml version="1.0" standalone="no"?>
<!DOCTYPE svg PUBLIC "-//W3C//DTD SVG 20010904//EN"
 "http://www.w3.org/TR/2001/REC-SVG-20010904/DTD/svg10.dtd">
<svg version="1.0" xmlns="http://www.w3.org/2000/svg"
 width="512.000000pt" height="512.000000pt" viewBox="0 0 512.000000 512.000000"
 preserveAspectRatio="xMidYMid meet">

<g transform="translate(0.000000,512.000000) scale(0.100000,-0.100000)"
fill="#000000" stroke="none">
<path d="M645 4470 c-108 -22 -225 -89 -296 -168 -63 -70 -117 -191 -129 -287
-7 -53 -10 -519 -8 -1400 3 -1250 4 -1323 22 -1375 60 -182 185 -306 366 -366
52 -17 119 -19 1055 -22 698 -2 1011 0 1037 8 91 26 107 146 25 192 -17 10
-248 14 -1042 18 l-1020 5 -50 27 c-94 50 -161 143 -172 239 l-6 49 1142 0
1143 0 29 29 c47 48 37 130 -21 164 -26 16 -122 17 -1159 17 l-1131 0 0 1205
c0 1192 0 1205 21 1259 26 70 92 139 167 174 l57 27 1770 0 c1691 0 1772 -1
1823 -18 70 -25 152 -101 183 -169 23 -51 24 -66 29 -323 4 -236 7 -274 23
-298 34 -52 120 -52 165 -1 l23 26 -3 292 c-3 272 -5 295 -25 349 -58 154
-179 273 -334 329 l-64 23 -1790 1 c-984 1 -1808 -2 -1830 -6z"/>
<path d="M1892 3699 c-48 -14 -106 -77 -121 -130 -9 -33 -11 -209 -9 -716 l3
-671 30 -43 c43 -61 105 -92 177 -87 63 5 -6 -33 753 406 242 139 451 263 463
275 39 36 62 92 62 147 0 55 -23 111 -62 147 -19 18 -398 239 -1031 603 -137
78 -190 92 -265 69z m661 -544 c257 -148 467 -272 467 -275 0 -4 -672 -396
-992 -578 l-58 -33 0 611 0 611 58 -33 c32 -18 268 -154 525 -303z"/>
<path d="M3768 3381 l-33 -29 -3 -720 -2 -719 -78 5 c-294 16 -579 -199 -646
-488 -20 -83 -20 -217 0 -300 41 -175 172 -340 334 -419 110 -54 209 -75 320
-68 236 15 433 144 538 353 67 132 65 116 69 797 2 339 5 617 6 617 1 0 117
-38 257 -85 140 -47 263 -85 273 -85 10 0 32 7 48 16 56 28 59 51 59 394 0
330 -4 366 -48 389 -61 33 -998 371 -1027 371 -24 0 -45 -9 -67 -29z m552
-366 c200 -74 365 -135 367 -135 2 0 3 -85 3 -190 0 -104 -3 -190 -7 -190 -4
0 -125 39 -268 87 l-260 86 -37 -17 c-71 -34 -68 -5 -68 -763 0 -738 0 -732
-56 -829 -31 -53 -119 -136 -173 -164 -24 -12 -75 -28 -114 -36 -138 -29 -276
14 -380 117 -245 245 -112 656 233 719 73 13 126 8 220 -22 61 -19 67 -19 103
-5 69 29 67 3 67 782 0 382 1 695 3 695 2 0 167 -61 367 -135z"/>
</g>
</svg>
